<svg xmlns="http://www.w3.org/2000/svg" viewBox="0 0 173 32">
  <g fill="none" fill-rule="evenodd">
    <g fill="#23EBF0">
      <path d="M1.638 28.651c.404 1.01 1.212 1.563 2.417 1.866.794.2 3.604.763 9.129 1.04L38.982 5.478a18.305 18.305 0 0 0-.557-1.994c-.361-1.022-1.277-1.758-2.486-2.041-.74-.174-2.67-.47-4.41-.641-1.63-.16-5.434-.39-7.165-.432L.52 24.773c.094 1.001.977 3.523 1.118 3.878M19.997.247c-10.135 0-14.871.926-15.942 1.195-1.205.303-2.125 1.02-2.486 2.041C1.167 4.62 0 8.6 0 15.801c0 2.025.094 3.958.236 5.5L21.109.252c-.364-.003-.733-.004-1.112-.004M19.339 31.718c7.701.245 14.177-.756 16.202-1.083 1.172-.19 2.41-.915 2.89-2.194.436-1.164 1.509-5.117 1.568-12.317.017-2.025-.23-6.017-.449-7.468l-23.209 23.1c.364.003 2.62-.05 2.998-.038"/>
    </g>
    <g fill="#1B1B1B">
      <path d="M173 10.38h-5.76v16.639h-5.759V10.38h-5.44V4.94H173zM153.801 27.019h-4.975L138.822 15.18h-.06v11.839h-5.76V4.94h4.637l10.34 11.839h.062V4.94h5.76zM130.442 21.579v5.44h-14.399V4.94h14.079v5.44h-8v2.88h6.72v5.119h-7.04v3.2zM100.363 10.38v11.2h1.556c3.36 0 5.6-1.867 5.6-5.6 0-3.734-2.24-5.6-5.6-5.6h-1.556Zm13.476 5.6c0 6.876-4.605 11.04-12.017 11.04h-7.538V4.94h7.538c7.475 0 12.017 4.164 12.017 11.04ZM83.187 18.06l-2.224-6.862-2.256 6.861h4.48Zm1.555 4.8h-7.59l-1.365 4.159h-6.589L77.746 4.94h6.403l8.548 22.079h-6.59l-1.365-4.16ZM48 16c0-7.268 5.263-11.435 12.061-11.435 3.478 0 6.172 1.065 8.115 2.412l-3.133 5.107c-1.504-1.034-2.883-1.66-4.794-1.66-3.226 0-5.983 1.942-5.983 5.576 0 3.634 2.757 5.577 5.983 5.577 1.911 0 3.29-.627 4.794-1.661l3.133 5.107c-1.943 1.347-4.637 2.412-8.115 2.412C53.263 27.435 48 23.268 48 16"/>
    </g>
  </g>
</svg>